<svg width="345" height="320" viewBox="0 0 345 320" fill="none" xmlns="http://www.w3.org/2000/svg">
<g filter="url(#filter0_dd_26_8577)">
<rect x="99" y="99" width="147" height="122" rx="8" fill="white" shape-rendering="crispEdges"/>
<rect x="119" y="115" width="32" height="10" rx="5" fill="#2D699D"/>
<path d="M122.104 152L124.698 154.594L129.896 149.406" stroke="#2A9F8F" stroke-width="1.5" stroke-linecap="round" stroke-linejoin="round"/>
<path d="M146.868 154.14H143.22L142.548 156H141.396L144.42 147.684H145.68L148.692 156H147.54L146.868 154.14ZM146.556 153.252L145.044 149.028L143.532 153.252H146.556ZM152.686 150.324H151.306V156H150.214V150.324H149.362V149.424H150.214V148.956C150.214 148.22 150.402 147.684 150.778 147.348C151.162 147.004 151.774 146.832 152.614 146.832V147.744C152.134 147.744 151.794 147.84 151.594 148.032C151.402 148.216 151.306 148.524 151.306 148.956V149.424H152.686V150.324ZM156.635 150.324H155.255V156H154.163V150.324H153.311V149.424H154.163V148.956C154.163 148.22 154.351 147.684 154.727 147.348C155.111 147.004 155.723 146.832 156.563 146.832V147.744C156.083 147.744 155.743 147.84 155.543 148.032C155.351 148.216 155.255 148.524 155.255 148.956V149.424H156.635V150.324ZM160.776 156.108C160.16 156.108 159.6 155.968 159.096 155.688C158.6 155.408 158.208 155.012 157.92 154.5C157.64 153.98 157.5 153.38 157.5 152.7C157.5 152.028 157.644 151.436 157.932 150.924C158.228 150.404 158.628 150.008 159.132 149.736C159.636 149.456 160.2 149.316 160.824 149.316C161.448 149.316 162.012 149.456 162.516 149.736C163.02 150.008 163.416 150.4 163.704 150.912C164 151.424 164.148 152.02 164.148 152.7C164.148 153.38 163.996 153.98 163.692 154.5C163.396 155.012 162.992 155.408 162.48 155.688C161.968 155.968 161.4 156.108 160.776 156.108ZM160.776 155.148C161.168 155.148 161.536 155.056 161.88 154.872C162.224 154.688 162.5 154.412 162.708 154.044C162.924 153.676 163.032 153.228 163.032 152.7C163.032 152.172 162.928 151.724 162.72 151.356C162.512 150.988 162.24 150.716 161.904 150.54C161.568 150.356 161.204 150.264 160.812 150.264C160.412 150.264 160.044 150.356 159.708 150.54C159.38 150.716 159.116 150.988 158.916 151.356C158.716 151.724 158.616 152.172 158.616 152.7C158.616 153.236 158.712 153.688 158.904 154.056C159.104 154.424 159.368 154.7 159.696 154.884C160.024 155.06 160.384 155.148 160.776 155.148ZM166.676 150.492C166.868 150.116 167.14 149.824 167.492 149.616C167.852 149.408 168.288 149.304 168.8 149.304V150.432H168.512C167.288 150.432 166.676 151.096 166.676 152.424V156H165.584V149.424H166.676V150.492ZM169.653 152.688C169.653 152.016 169.789 151.428 170.061 150.924C170.333 150.412 170.705 150.016 171.177 149.736C171.657 149.456 172.193 149.316 172.785 149.316C173.297 149.316 173.773 149.436 174.213 149.676C174.653 149.908 174.989 150.216 175.221 150.6V147.12H176.325V156H175.221V154.764C175.005 155.156 174.685 155.48 174.261 155.736C173.837 155.984 173.341 156.108 172.773 156.108C172.189 156.108 171.657 155.964 171.177 155.676C170.705 155.388 170.333 154.984 170.061 154.464C169.789 153.944 169.653 153.352 169.653 152.688ZM175.221 152.7C175.221 152.204 175.121 151.772 174.921 151.404C174.721 151.036 174.449 150.756 174.105 150.564C173.769 150.364 173.397 150.264 172.989 150.264C172.581 150.264 172.209 150.36 171.873 150.552C171.537 150.744 171.269 151.024 171.069 151.392C170.869 151.76 170.769 152.192 170.769 152.688C170.769 153.192 170.869 153.632 171.069 154.008C171.269 154.376 171.537 154.66 171.873 154.86C172.209 155.052 172.581 155.148 172.989 155.148C173.397 155.148 173.769 155.052 174.105 154.86C174.449 154.66 174.721 154.376 174.921 154.008C175.121 153.632 175.221 153.196 175.221 152.7ZM177.762 152.688C177.762 152.016 177.898 151.428 178.17 150.924C178.442 150.412 178.814 150.016 179.286 149.736C179.766 149.456 180.298 149.316 180.882 149.316C181.458 149.316 181.958 149.44 182.382 149.688C182.806 149.936 183.122 150.248 183.33 150.624V149.424H184.434V156H183.33V154.776C183.114 155.16 182.79 155.48 182.358 155.736C181.934 155.984 181.438 156.108 180.87 156.108C180.286 156.108 179.758 155.964 179.286 155.676C178.814 155.388 178.442 154.984 178.17 154.464C177.898 153.944 177.762 153.352 177.762 152.688ZM183.33 152.7C183.33 152.204 183.23 151.772 183.03 151.404C182.83 151.036 182.558 150.756 182.214 150.564C181.878 150.364 181.506 150.264 181.098 150.264C180.69 150.264 180.318 150.36 179.982 150.552C179.646 150.744 179.378 151.024 179.178 151.392C178.978 151.76 178.878 152.192 178.878 152.688C178.878 153.192 178.978 153.632 179.178 154.008C179.378 154.376 179.646 154.66 179.982 154.86C180.318 155.052 180.69 155.148 181.098 155.148C181.506 155.148 181.878 155.052 182.214 154.86C182.558 154.66 182.83 154.376 183.03 154.008C183.23 153.632 183.33 153.196 183.33 152.7ZM187.371 150.648C187.595 150.256 187.923 149.936 188.355 149.688C188.787 149.44 189.279 149.316 189.831 149.316C190.423 149.316 190.955 149.456 191.427 149.736C191.899 150.016 192.271 150.412 192.543 150.924C192.815 151.428 192.951 152.016 192.951 152.688C192.951 153.352 192.815 153.944 192.543 154.464C192.271 154.984 191.895 155.388 191.415 155.676C190.943 155.964 190.415 156.108 189.831 156.108C189.263 156.108 188.763 155.984 188.331 155.736C187.907 155.488 187.587 155.172 187.371 154.788V156H186.279V147.12H187.371V150.648ZM191.835 152.688C191.835 152.192 191.735 151.76 191.535 151.392C191.335 151.024 191.063 150.744 190.719 150.552C190.383 150.36 190.011 150.264 189.603 150.264C189.203 150.264 188.831 150.364 188.487 150.564C188.151 150.756 187.879 151.04 187.671 151.416C187.471 151.784 187.371 152.212 187.371 152.7C187.371 153.196 187.471 153.632 187.671 154.008C187.879 154.376 188.151 154.66 188.487 154.86C188.831 155.052 189.203 155.148 189.603 155.148C190.011 155.148 190.383 155.052 190.719 154.86C191.063 154.66 191.335 154.376 191.535 154.008C191.735 153.632 191.835 153.192 191.835 152.688ZM195.481 147.12V156H194.389V147.12H195.481ZM203.342 152.46C203.342 152.668 203.33 152.888 203.306 153.12H198.05C198.09 153.768 198.31 154.276 198.71 154.644C199.118 155.004 199.61 155.184 200.186 155.184C200.658 155.184 201.05 155.076 201.362 154.86C201.682 154.636 201.906 154.34 202.034 153.972H203.21C203.034 154.604 202.682 155.12 202.154 155.52C201.626 155.912 200.97 156.108 200.186 156.108C199.562 156.108 199.002 155.968 198.506 155.688C198.018 155.408 197.634 155.012 197.354 154.5C197.074 153.98 196.934 153.38 196.934 152.7C196.934 152.02 197.07 151.424 197.342 150.912C197.614 150.4 197.994 150.008 198.482 149.736C198.978 149.456 199.546 149.316 200.186 149.316C200.81 149.316 201.362 149.452 201.842 149.724C202.322 149.996 202.69 150.372 202.946 150.852C203.21 151.324 203.342 151.86 203.342 152.46ZM202.214 152.232C202.214 151.816 202.122 151.46 201.938 151.164C201.754 150.86 201.502 150.632 201.182 150.48C200.87 150.32 200.522 150.24 200.138 150.24C199.586 150.24 199.114 150.416 198.722 150.768C198.338 151.12 198.118 151.608 198.062 152.232H202.214Z" fill="#242D30"/>
<path d="M122.104 182L124.698 184.594L129.896 179.406" stroke="#2A9F8F" stroke-width="1.5" stroke-linecap="round" stroke-linejoin="round"/>
<path d="M146.868 184.14H143.22L142.548 186H141.396L144.42 177.684H145.68L148.692 186H147.54L146.868 184.14ZM146.556 183.252L145.044 179.028L143.532 183.252H146.556ZM149.602 182.7C149.602 182.02 149.738 181.428 150.01 180.924C150.282 180.412 150.658 180.016 151.138 179.736C151.626 179.456 152.182 179.316 152.806 179.316C153.614 179.316 154.278 179.512 154.798 179.904C155.326 180.296 155.674 180.84 155.842 181.536H154.666C154.554 181.136 154.334 180.82 154.006 180.588C153.686 180.356 153.286 180.24 152.806 180.24C152.182 180.24 151.678 180.456 151.294 180.888C150.91 181.312 150.718 181.916 150.718 182.7C150.718 183.492 150.91 184.104 151.294 184.536C151.678 184.968 152.182 185.184 152.806 185.184C153.286 185.184 153.686 185.072 154.006 184.848C154.326 184.624 154.546 184.304 154.666 183.888H155.842C155.666 184.56 155.314 185.1 154.786 185.508C154.258 185.908 153.598 186.108 152.806 186.108C152.182 186.108 151.626 185.968 151.138 185.688C150.658 185.408 150.282 185.012 150.01 184.5C149.738 183.988 149.602 183.388 149.602 182.7ZM156.891 182.7C156.891 182.02 157.027 181.428 157.299 180.924C157.571 180.412 157.947 180.016 158.427 179.736C158.915 179.456 159.471 179.316 160.095 179.316C160.903 179.316 161.567 179.512 162.087 179.904C162.615 180.296 162.963 180.84 163.131 181.536H161.955C161.843 181.136 161.623 180.82 161.295 180.588C160.975 180.356 160.575 180.24 160.095 180.24C159.471 180.24 158.967 180.456 158.583 180.888C158.199 181.312 158.007 181.916 158.007 182.7C158.007 183.492 158.199 184.104 158.583 184.536C158.967 184.968 159.471 185.184 160.095 185.184C160.575 185.184 160.975 185.072 161.295 184.848C161.615 184.624 161.835 184.304 161.955 183.888H163.131C162.955 184.56 162.603 185.1 162.075 185.508C161.547 185.908 160.887 186.108 160.095 186.108C159.471 186.108 158.915 185.968 158.427 185.688C157.947 185.408 157.571 185.012 157.299 184.5C157.027 183.988 156.891 183.388 156.891 182.7ZM170.588 182.46C170.588 182.668 170.576 182.888 170.552 183.12H165.296C165.336 183.768 165.556 184.276 165.956 184.644C166.364 185.004 166.856 185.184 167.432 185.184C167.904 185.184 168.296 185.076 168.608 184.86C168.928 184.636 169.152 184.34 169.28 183.972H170.456C170.28 184.604 169.928 185.12 169.4 185.52C168.872 185.912 168.216 186.108 167.432 186.108C166.808 186.108 166.248 185.968 165.752 185.688C165.264 185.408 164.88 185.012 164.6 184.5C164.32 183.98 164.18 183.38 164.18 182.7C164.18 182.02 164.316 181.424 164.588 180.912C164.86 180.4 165.24 180.008 165.728 179.736C166.224 179.456 166.792 179.316 167.432 179.316C168.056 179.316 168.608 179.452 169.088 179.724C169.568 179.996 169.936 180.372 170.192 180.852C170.456 181.324 170.588 181.86 170.588 182.46ZM169.46 182.232C169.46 181.816 169.368 181.46 169.184 181.164C169 180.86 168.748 180.632 168.428 180.48C168.116 180.32 167.768 180.24 167.384 180.24C166.832 180.24 166.36 180.416 165.968 180.768C165.584 181.12 165.364 181.608 165.308 182.232H169.46ZM174.357 186.108C173.853 186.108 173.401 186.024 173.001 185.856C172.601 185.68 172.285 185.44 172.053 185.136C171.821 184.824 171.693 184.468 171.669 184.068H172.797C172.829 184.396 172.981 184.664 173.253 184.872C173.533 185.08 173.897 185.184 174.345 185.184C174.761 185.184 175.089 185.092 175.329 184.908C175.569 184.724 175.689 184.492 175.689 184.212C175.689 183.924 175.561 183.712 175.305 183.576C175.049 183.432 174.653 183.292 174.117 183.156C173.629 183.028 173.229 182.9 172.917 182.772C172.613 182.636 172.349 182.44 172.125 182.184C171.909 181.92 171.801 181.576 171.801 181.152C171.801 180.816 171.901 180.508 172.101 180.228C172.301 179.948 172.585 179.728 172.953 179.568C173.321 179.4 173.741 179.316 174.213 179.316C174.941 179.316 175.529 179.5 175.977 179.868C176.425 180.236 176.665 180.74 176.697 181.38H175.605C175.581 181.036 175.441 180.76 175.185 180.552C174.937 180.344 174.601 180.24 174.177 180.24C173.785 180.24 173.473 180.324 173.241 180.492C173.009 180.66 172.893 180.88 172.893 181.152C172.893 181.368 172.961 181.548 173.097 181.692C173.241 181.828 173.417 181.94 173.625 182.028C173.841 182.108 174.137 182.2 174.513 182.304C174.985 182.432 175.369 182.56 175.665 182.688C175.961 182.808 176.213 182.992 176.421 183.24C176.637 183.488 176.749 183.812 176.757 184.212C176.757 184.572 176.657 184.896 176.457 185.184C176.257 185.472 175.973 185.7 175.605 185.868C175.245 186.028 174.829 186.108 174.357 186.108ZM180.627 186.108C180.123 186.108 179.671 186.024 179.271 185.856C178.871 185.68 178.555 185.44 178.323 185.136C178.091 184.824 177.963 184.468 177.939 184.068H179.067C179.099 184.396 179.251 184.664 179.523 184.872C179.803 185.08 180.167 185.184 180.615 185.184C181.031 185.184 181.359 185.092 181.599 184.908C181.839 184.724 181.959 184.492 181.959 184.212C181.959 183.924 181.831 183.712 181.575 183.576C181.319 183.432 180.923 183.292 180.387 183.156C179.899 183.028 179.499 182.9 179.187 182.772C178.883 182.636 178.619 182.44 178.395 182.184C178.179 181.92 178.071 181.576 178.071 181.152C178.071 180.816 178.171 180.508 178.371 180.228C178.571 179.948 178.855 179.728 179.223 179.568C179.591 179.4 180.011 179.316 180.483 179.316C181.211 179.316 181.799 179.5 182.247 179.868C182.695 180.236 182.935 180.74 182.967 181.38H181.875C181.851 181.036 181.711 180.76 181.455 180.552C181.207 180.344 180.871 180.24 180.447 180.24C180.055 180.24 179.743 180.324 179.511 180.492C179.279 180.66 179.163 180.88 179.163 181.152C179.163 181.368 179.231 181.548 179.367 181.692C179.511 181.828 179.687 181.94 179.895 182.028C180.111 182.108 180.407 182.2 180.783 182.304C181.255 182.432 181.639 182.56 181.935 182.688C182.231 182.808 182.483 182.992 182.691 183.24C182.907 183.488 183.019 183.812 183.027 184.212C183.027 184.572 182.927 184.896 182.727 185.184C182.527 185.472 182.243 185.7 181.875 185.868C181.515 186.028 181.099 186.108 180.627 186.108ZM185.133 178.356C184.925 178.356 184.749 178.284 184.605 178.14C184.461 177.996 184.389 177.82 184.389 177.612C184.389 177.404 184.461 177.228 184.605 177.084C184.749 176.94 184.925 176.868 185.133 176.868C185.333 176.868 185.501 176.94 185.637 177.084C185.781 177.228 185.853 177.404 185.853 177.612C185.853 177.82 185.781 177.996 185.637 178.14C185.501 178.284 185.333 178.356 185.133 178.356ZM185.661 179.424V186H184.569V179.424H185.661ZM188.614 180.648C188.838 180.256 189.166 179.936 189.598 179.688C190.03 179.44 190.522 179.316 191.074 179.316C191.666 179.316 192.198 179.456 192.67 179.736C193.142 180.016 193.514 180.412 193.786 180.924C194.058 181.428 194.194 182.016 194.194 182.688C194.194 183.352 194.058 183.944 193.786 184.464C193.514 184.984 193.138 185.388 192.658 185.676C192.186 185.964 191.658 186.108 191.074 186.108C190.506 186.108 190.006 185.984 189.574 185.736C189.15 185.488 188.83 185.172 188.614 184.788V186H187.522V177.12H188.614V180.648ZM193.078 182.688C193.078 182.192 192.978 181.76 192.778 181.392C192.578 181.024 192.306 180.744 191.962 180.552C191.626 180.36 191.254 180.264 190.846 180.264C190.446 180.264 190.074 180.364 189.73 180.564C189.394 180.756 189.122 181.04 188.914 181.416C188.714 181.784 188.614 182.212 188.614 182.7C188.614 183.196 188.714 183.632 188.914 184.008C189.122 184.376 189.394 184.66 189.73 184.86C190.074 185.052 190.446 185.148 190.846 185.148C191.254 185.148 191.626 185.052 191.962 184.86C192.306 184.66 192.578 184.376 192.778 184.008C192.978 183.632 193.078 183.192 193.078 182.688ZM196.723 177.12V186H195.631V177.12H196.723ZM204.584 182.46C204.584 182.668 204.572 182.888 204.548 183.12H199.292C199.332 183.768 199.552 184.276 199.952 184.644C200.36 185.004 200.852 185.184 201.428 185.184C201.9 185.184 202.292 185.076 202.604 184.86C202.924 184.636 203.148 184.34 203.276 183.972H204.452C204.276 184.604 203.924 185.12 203.396 185.52C202.868 185.912 202.212 186.108 201.428 186.108C200.804 186.108 200.244 185.968 199.748 185.688C199.26 185.408 198.876 185.012 198.596 184.5C198.316 183.98 198.176 183.38 198.176 182.7C198.176 182.02 198.312 181.424 198.584 180.912C198.856 180.4 199.236 180.008 199.724 179.736C200.22 179.456 200.788 179.316 201.428 179.316C202.052 179.316 202.604 179.452 203.084 179.724C203.564 179.996 203.932 180.372 204.188 180.852C204.452 181.324 204.584 181.86 204.584 182.46ZM203.456 182.232C203.456 181.816 203.364 181.46 203.18 181.164C202.996 180.86 202.744 180.632 202.424 180.48C202.112 180.32 201.764 180.24 201.38 180.24C200.828 180.24 200.356 180.416 199.964 180.768C199.58 181.12 199.36 181.608 199.304 182.232H203.456Z" fill="#242D30"/>
</g>
<defs>
<filter id="filter0_dd_26_8577" x="0.691826" y="0.691826" width="343.616" height="318.616" filterUnits="userSpaceOnUse" color-interpolation-filters="sRGB">
<feFlood flood-opacity="0" result="BackgroundImageFix"/>
<feColorMatrix in="SourceAlpha" type="matrix" values="0 0 0 0 0 0 0 0 0 0 0 0 0 0 0 0 0 0 127 0" result="hardAlpha"/>
<feOffset/>
<feGaussianBlur stdDeviation="49.1541"/>
<feComposite in2="hardAlpha" operator="out"/>
<feColorMatrix type="matrix" values="0 0 0 0 0 0 0 0 0 0 0 0 0 0 0 0 0 0 0.05 0"/>
<feBlend mode="normal" in2="BackgroundImageFix" result="effect1_dropShadow_26_8577"/>
<feColorMatrix in="SourceAlpha" type="matrix" values="0 0 0 0 0 0 0 0 0 0 0 0 0 0 0 0 0 0 127 0" result="hardAlpha"/>
<feOffset/>
<feGaussianBlur stdDeviation="25.0786"/>
<feComposite in2="hardAlpha" operator="out"/>
<feColorMatrix type="matrix" values="0 0 0 0 0 0 0 0 0 0 0 0 0 0 0 0 0 0 0.05 0"/>
<feBlend mode="normal" in2="effect1_dropShadow_26_8577" result="effect2_dropShadow_26_8577"/>
<feBlend mode="normal" in="SourceGraphic" in2="effect2_dropShadow_26_8577" result="shape"/>
</filter>
</defs>
</svg>
